<?xml version="1.0" encoding="UTF-8"?>
<svg id="b" data-name="numbers" xmlns="http://www.w3.org/2000/svg" width="100" height="100" viewBox="0 0 100 100">
  <path id="c" data-name="U_x2B_0031" d="M49.905,81.686c-1.847-.505.562-35.084,1.377-44.369.041-.469-.336-.86-.806-.846l-9.34.268c-.338.01-.671-.146-.854-.432-.369-.577-.456-1.316-.349-2.001.048-.307.258-.56.553-.657,2.843-.929,7.017-1.81,9.842-1.716.318.011.632.08.932.186.849.301,1.274.581,2.702,1.004.179.053.383.075.57.067,4.081-.191,3.916.107,4.811.81,2.505,1.966-1.783,9.496-3.394,21.08-.918,6.604.238,7.704-1.182,14.321-1.45,6.754-4.132,12.484-4.861,12.285Z"/>
</svg>