<?xml version="1.0" encoding="UTF-8"?>
<svg id="a" data-name="letters" xmlns="http://www.w3.org/2000/svg" width="100" height="100" viewBox="0 0 100 100">
  <g id="b" data-name="U_x2B_006D">
    <path d="M46.337,78.741c.367.153,5.74-3.764,10.207-8.45,1.918-2.85,2.574-4.444,4.199-8.981,5.086-9.983,7.783-16.668,7.122-17.099-1.073-.701-10.993,12.416-18.027,25.705-4.231,7.418-3.868,8.672-3.501,8.825Z"/>
    <path d="M47.67,59.865c.241,1.136-2.009,12.862-5.31,18.66-.148.259-1.249,1.736-2.234,1.987-1.264.323-2.5.316-3.055-.624-.869-1.473.676-3.917,1.664-5.57,6.022-10.081,8.677-15.665,8.934-14.453Z"/>
    <path d="M40.415,61.114c-1.388-.452-1.893-2.709-2.534-4.202-1.64-4.456-2.092-8.243-3.159-12.928-.67-1.675-1.855-3.261-2.605-4.78-.049-.183-.159-.375.006-.476,2.167-.576,5.326.776,7.48,1.582.199.311.179.733.277,1.125.951,6.34.618,13.306.565,19.639l-.031.039Z"/>
    <path d="M56.635,35.302c.313-.004.547.301.47.604-.485,1.901-2.801,5.545-5.493,8.652-2.133,2.462-6.022,4.051-7.949,3.81-.287-1.511.835-2.776.109-6.263-.815-3.917-3.285-6.263-4.664-8.956-.832-2.606-.881-4.734-.044-4.818,1.971-.197,3.854,4.971,8.255,7.248,4.423.989,7.66-.255,9.315-.278Z"/>
  </g>
</svg>