<?xml version="1.0" encoding="UTF-8"?>
<svg id="a" data-name="letters" xmlns="http://www.w3.org/2000/svg" width="100" height="100" viewBox="0 0 100 100">
  <path id="b" data-name="U_x2B_0067" d="M37.179,29.126c3.716.511,6.463,4.182,9.898,7.685,6.041,7.521,4.374,6.122,8.102,12.154,2.607,3.559-1.609,2.494-3.46,3,.983,3.808,18.438,24.018,7.533,26.3-5.178.901-7.602-.49-11.78-3.045-3.231-1.581-5.287-.759-7.599-2.079.086-2.306,1.063-2.592,4.533-2.76,5.047.46,11.627,1.142,7.686-5.453-4.402-9.771-7.601-15.796-11.497-23.846.021-.489,5.73,4.595,5.715,3.81-.994-5.768-9.317-14.211-9.131-15.766Z"/>
</svg>