<?xml version="1.0" encoding="UTF-8"?>
<svg id="b" data-name="numbers" xmlns="http://www.w3.org/2000/svg" width="100" height="100" viewBox="0 0 100 100">
  <g id="c" data-name="U_x2B_0038">
    <path d="M28.636,80.845c2.67,3.43,15.409-25.617,25.772-14.063,2.91,2.042.959,7.648,3.441,7.638,12.459-3.348,3.477-23.494,13.408-14.189,1.516.151-13.573-25.901-13.271-26.227-.401-.762-1.351-1.046-2.104-.628-.005.422-12.844,6.287-11.549,7.008,4.581,2.593,9.762,7.799,11.374,7.503-.855-1.115-3.405-7.301.366-7.557,5.996-.121,6.279,23.471,1.179,23.889-.751-.911-5.961-5.566-11.55-9.369-.351-.239-.827-.173-1.093.157-5.632,6.983-15.711,23.529-15.972,25.838Z"/>
    <path d="M52.283,51.691c-3.504-.364-4.43-.544-6.676-.13-.363.067-.751,0-1.039-.232-3.315-2.676-3.216-8.293-2.29-8.679.471-.196,2.545,1.342,3.392,3.029.275.547.629,1.056,1.068,1.483,2.984,2.904,4.835,3.58,5.699,3.969.305.138.179.594-.154.56Z"/>
  </g>
</svg>