<?xml version="1.0" encoding="UTF-8"?>
<svg id="b" data-name="numbers" xmlns="http://www.w3.org/2000/svg" width="100" height="100" viewBox="0 0 100 100">
  <g id="c" data-name="U_x2B_0034">
    <path d="M56.722,40.704c.845,1.94,1.445,6.415,1.78,11.392.05.736.043,1.483-.012,2.219-.243,3.248-.435,4.336-2.499,7.822-.215.364-.675.53-1.059.354-.974-.445-1.899-2.014-1.353-7.324.422-6.417,1.921-11.563,2.598-14.424.065-.273.434-.296.546-.039Z"/>
    <path d="M38.19,49.143c.628,6.254-4.18,18.704-4.453,24.089.179,2.081,1.367,11.274,3.887,10.386,3.337-2.687,7.208-10.744,14.179-10.715,1.016-.461,6.041.236,5.966,3.287.407,3.151-.061,5.655.954,6.009,1.489.197,4.872-1.169,6.153-7.2,1.029-3.954,1.27-6.574,1.38-13.001.158-9.284-3.067-16.866-3.504-16.785-.453.084.068,8.596-.528,19.065-.051.888-.323,3.183-1.3,4.04-.82.719-1.638-1.775-3.799-2.444-6.771.79-8.802,2.42-8.54-5.782.078-5.717,1.077-8.02,1.653-11.737.95-12.756-.497-19.563-.766-19.541-.314-.604-1.194,16.502-4.317,20.863-3.884,7.72,1.81,16.907-4.259,21.121-.714.216-1.448-.316-1.519-1.057-.685-2.657,2.704-21.324-1.187-20.599Z"/>
  </g>
</svg>