<?xml version="1.0" encoding="UTF-8"?>
<svg id="b" data-name="numbers" xmlns="http://www.w3.org/2000/svg" width="100" height="100" viewBox="0 0 100 100">
  <path id="c" data-name="U_x2B_0033" d="M53.908,80.478c3.269-5.391,12.49-28.501,16.508-40.403.138-.408.086-.847-.135-1.217-1.671-2.802-4.17-7.006-7.536-8.528-.865-.391-2.16.609-2.881,1.269-.384.352-.874.565-1.395.575-1.727.034-6.19-.149-14.596-2.119-.779-.183-1.587-.234-2.383-.152-1.905.196-3.507.204-5.88-1.177-.769-.447-1.757-.286-2.287.428-1.49,2.006-2.56,5.027-2.329,6.913.135,1.101,1.096,1.205,1.927,1.834.557.421.816,1.133.721,1.825l-.428,3.129c-.068.498-.462.892-.963.943-.507.051-1.069.166-1.564.372-1.4,1.445-1.19,7.798-1.139,8.146,1.107,7.521,4.509,22.557,7.258,27.355.205.358.75.206.732-.206-.271-6.402-.54-16.092.156-27.894l.041-12.136c.002-.668.13-1.33.401-1.94.373-.841.935-1.779,1.707-2.447.801-.693,1.949-.828,2.938-.449,1.824.698,3.808,2.195,4.957,3.931.346.524.504,1.145.486,1.773-.052,1.813-.173,5.983-.219,7.594-.014.481-.143.948-.364,1.375-.585,1.125-1.237,1.943-1.67,2.437-.258.294-.403.655-.42,1.046-.359,8.253-.931,28.681-.104,31.926.51.052,1.126-.277,2.121-1.699.163-.234.274-.5.332-.779,3.554-17.22,4.097-39.693,5.485-45.729.1-.436.456-.761.899-.822,1.043-.142,2.471.059,3.14.172.244.041.47.134.674.274l6.036,3.925c.383.249.532.735.348,1.154-.784,1.789-2.919,6.477-4.951,9.321-.243.339-.424.707-.522,1.112-2.508,10.416-5.329,23.637-5.768,28.65-.033.378.471.542.668.218Z"/>
</svg>