<?xml version="1.0" encoding="UTF-8"?>
<svg id="a" data-name="letters" xmlns="http://www.w3.org/2000/svg" width="100" height="100" viewBox="0 0 100 100">
  <g id="b" data-name="U_x2B_0073">
    <path d="M57.693,21.493c-2.692,6.644-6.993,16.642-11.19,22.764-3.185,8.159.262,26.862-3.198,27.128-3.861-2.251-13.205-15.031-13.003-18.938,2.64-2.442,8.379,9.828,10.344,4.457-.525-15.516.783-23.831,16.268-35.942.37-.333.99.08.779.531Z"/>
    <path d="M69.281,66.386c.142.172.42.071.42-.152.016-4.6-3.046-17.779-6.837-21.085-.552-.482-1.267-.74-1.999-.769-2.484-.098-3.826-.094-6.504.092-1.433.1-2.646,1.102-2.992,2.496-1.99,8.013-6.145,31.938-7.04,37.558-.046.29.281.489.519.318,3.545-2.543,7.338-13.393,11.27-31.799.329-1.541,1.451-1.858,2.555-.733,3.758,3.827,8.913,12.02,10.607,14.074Z"/>
  </g>
</svg>