<?xml version="1.0" encoding="UTF-8"?>
<svg id="a" data-name="letters" xmlns="http://www.w3.org/2000/svg" width="100" height="100" viewBox="0 0 100 100">
  <g id="b" data-name="U_x2B_006C">
    <path d="M45.393,71.345c.978-.68,2.056-4.914,1.993-6.608-.346-2.727-7.106-12.803-10.533-12.794-.983,4.407,3.344,7.507,5.43,10.467,2.86,4.337,2.149,8.933,3.11,8.934Z"/>
    <path d="M32.872,47.48c4.887-3.949,13.436-4.854,19.028-7.583,2.182-1.348,4.436-3.278,8.366-7.59,2.119-1.825,4.329-6.313,6.863-6.52-.38,4.644-5.901,34.312-8.193,47.413-.824,2.407-4.838,15.859-6.74,8.65-3.073-8.165,3.29-21.895,3.778-25.727-.187-3.743.685-9.433,2.104-12.239,1.856-4.726,1.395-3.991-2.324-1.726-4.444,3.839-21.944,7.044-22.881,5.322Z"/>
  </g>
</svg>