<?xml version="1.0" encoding="UTF-8"?>
<svg id="a" data-name="letters" xmlns="http://www.w3.org/2000/svg" width="100" height="100" viewBox="0 0 100 100">
  <g id="b" data-name="U_x2B_0071">
    <path d="M49.481,22.489c3.205,2.446,12.128,13.158,16.103,24.247.444,1.238.352,2.605-.262,3.768-2.507,4.744-7.348,8.019-10.768,9.261-1.043.379-2.232-.174-2.556-1.236-.421-1.379-.443-3.078-.338-4.527.044-.605.289-1.177.701-1.623.954-1.033,2.161-1.849,3.272-2.724,1.345-1.059,1.903-2.822,1.405-4.459-1.86-6.11-7.563-18.376-8.438-22.133-.118-.507.468-.89.881-.574Z"/>
    <path d="M62.199,80.827c-2.649-8.783-10.93-17.035-17.901-23.98-1.989-3.698-2.902-10.384-4.64-10.678-1.363-.515-6.646,7.51-5.303,11.036,9.619,10.83,27.288,25.699,27.844,23.623Z"/>
  </g>
</svg>