<?xml version="1.0" encoding="UTF-8"?>
<svg id="a" data-name="letters" xmlns="http://www.w3.org/2000/svg" width="100" height="100" viewBox="0 0 100 100">
  <path id="b" data-name="U_x2B_006A" d="M58.284,28.447c.233-.062.603.573.9,1.377.85,2.49,1.076,5.233,1.352,7.882.511,6.639.91,12.993.687,19.802-.065,3.8-.055,8.208-.488,11.814-.171,1.807-.664,4.755-2.284,6.108-2.182,1.934-4.875,3.403-7.198,5.282-1.257.872-2.468,2.353-3.497,2.243-.729-.038-1.512-1.121-1.888-1.595-.545-.721-1.134-1.493-1.657-2.198-4.136-5.864-3.332-8.037-2.209-14.619.161-2.002.956-4.169-.374-5.876-2.112-1.83-3.732-1.827-2.47-5.237,2.514-7.432,6.291-15.066,11.216-20.826,2.82-3.601.612,2.588.684,3.735-.838,7.01-2.14,14.308-3.054,21.364,0,2.504-2.351,19.015.028,19.568.33-.015.71-.468,1.036-1.105,1.602-3.21,2.451-6.473,3.122-9.863,1.965-8.445,3.126-17.106,4.539-25.109.242-1.667,1.008-8.334,1.186-11.248.041-.721.11-1.367.316-1.481l.052-.02Z"/>
</svg>