<?xml version="1.0" encoding="UTF-8"?>
<svg id="a" data-name="letters" xmlns="http://www.w3.org/2000/svg" width="100" height="100" viewBox="0 0 100 100">
  <g id="b" data-name="U_x2B_0069">
    <path d="M58.033,50.671c.144-.203.819.067,1.609.361,3.036,1.133,4.554,1.699,5.124,1.839,1.559.259,1.32,2.378,1.133,3.208-.04,2.905.914,14.585-2.572,18.143-.979-3.931-1.457-8.416-2.114-13.434-.107-.912-.608-6.785-1.801-8.048-.148-.161-1.523-1.557-1.38-2.069Z"/>
    <path d="M69.365,27.284c-4.109,9.31-16.265,13.997-22.708,16.5-1.285.88-3.982,1.109-4.741-.789-1.066-2.601-5.733-5.511-8.19-7.565-1.489-1.544-3.187-1.789-3.087-2.234.105-.47,1.496-.345,3.186-.558,7.328-.678,11.808-2.487,15.317-2.409-.608,1.64-2.989,2.27-4.248,3.428-3.891,3.505,1.711,5.066,4.292,3.448,8.734-3.424,11.732-6.751,20.179-9.821Z"/>
    <path d="M31.526,43.609c.196-.235.539-.215,1.839.082,2.973.678,3.746,1.133,4.286,1.388.957.452,1.393.689,1.692,1.215.277.489.296.82.164,2.209-.212,2.233-.331,2.695-.361,3.547-.012.343-.024,1.138.328,3.088.309,1.706.587,4.008,1.683,6.816.876,2.242,2.09,4.356,4.155,6.799,1.013,1.198,2.211,2.922,4.574,4.122.888.451,3.097,1.573,5.88,1.609.958.013,2.24.148,4.172.296.832.064,1.392.113,1.577.509.292.625-.897,1.421-1.035,1.527-1.174.911-2.077,1.243-4.418,1.724-4.085.841-4.837,1.01-7.144,1.47-.92.183-1.433.287-2.546.484-.874.155-1.309.302-2.069.263-.191-.01-.773-.118-1.495-.46-1.061-.503-1.811-1.47-2.578-3.005-1.563-3.129-1.451-3.041-2.176-4.738-.723-1.693-.944-2.389-1.536-5.239-.591-2.848-1.176-5.558-1.905-9.911-.755-4.512-.83-5.196-1.248-6.865-.79-3.15-.788-3.802-1.051-4.796-.207-.782-1.1-1.761-.788-2.135Z"/>
  </g>
</svg>