<?xml version="1.0" encoding="UTF-8"?>
<svg id="b" data-name="numbers" xmlns="http://www.w3.org/2000/svg" width="100" height="100" viewBox="0 0 100 100">
  <g id="c" data-name="U_x2B_0036">
    <path d="M50.152,58.112c1.064.838,13.663-2.257,11.518-11.036-.267-.547-1.082.909-1.611,1.531-.333.392-1.066.232-1.051-.909,0,0,.792-12.596-4.52-16.965-.153-.126-.394-.069-.462.117-.926,2.532-.64,19.761-.64,19.761-.565,4.958-3.743,7.101-3.234,7.502Z"/>
    <path d="M58.162,80.15c.119.714-.664,1.249-1.274.859-3.111-1.989-9.217-8.54-15.637-15.627-2.328-2.569-4.906-10.558-1.577-17.704,1.109-2.38,4.683-6.835,7.855-6.374,1.358.197,2.09.995,2.266,2.19.256,1.73-2.379,2.46-3.88,4.973-2.11,3.532-2.832,6.25-.599,9.933,1.085,1.789,2.62,3.27,4.375,4.409,2.418,1.569,2.844,2.239,6.144,9.603.228.438,1.645,3.639,2.327,7.739Z"/>
  </g>
</svg>