<?xml version="1.0" encoding="UTF-8"?>
<svg id="a" data-name="letters" xmlns="http://www.w3.org/2000/svg" width="100" height="100" viewBox="0 0 100 100">
  <g id="b" data-name="U_x2B_006F">
    <path d="M42.954,36.437c.005-.19.245-.266.372-.125,3.083,3.448,5.734,6.245,7.798,9.106.472.736,1.042,1.599,1.164,2.922.033.36-.008.728-.163,1.055-.408.862-1.192,1.287-1.725,1.55-1.346.665-3.067.753-4.296.343-.346-.116-.655-.353-.792-.692-.381-.943.214-1.938-.551-3.38-.941-1.772-2.622-1.742-3.105-3.137-.016-.045-.025-.099-.028-.147-.063-1.281.424-1.851.956-4.37.249-1.176.347-2.266.369-3.126Z"/>
    <path d="M33.443,63.016c3.367.714,8.747,3.72,14.505,4.436,1.358.169,2.744-.2,3.726-1.153,1.721-1.669,2.57-4.681,3.766-7.624.911-2.241,2.236-7.489,2.106-14.261-.002-.127-.01-.259-.021-.385-.72-8.102-2.481-12.326-4.041-15.684-.159-.341-.084-.74.174-1.014,1.042-1.104,2.72-1.668,4.102-1.591,2.036.114,3.545,1.486,4.905,3.372,2.261,3.136,3.707,5.374,4.216,8.818.461,3.122-2.426,3.633-4.247,7.211-.16.315-.26.67-.307,1.021-.513,3.853-.096,5.216-.849,11.953-.52,4.646-1.561,7.605-3.674,13.041-1.365,3.512-2.464,5.884-3.624,7.241-.777.909-2.073,1.176-3.168.692-1.864-.823-3.078-1.49-7.59-4.178-.131-.078-.27-.168-.394-.256-3.983-2.816-5.838-4.768-7.21-6.566-.966-1.266-2.867-3.759-2.746-4.826.02-.174.198-.284.369-.248Z"/>
  </g>
</svg>