<?xml version="1.0" encoding="UTF-8"?>
<svg id="a" data-name="letters" xmlns="http://www.w3.org/2000/svg" width="100" height="100" viewBox="0 0 100 100">
  <g id="b" data-name="U_x2B_0078">
    <path d="M54.205,49.457c-.005-.241.232-.419.458-.335,2.083.775,4.973,5.497,5.708,6.858.303.561,3.367,9.479,1.591,18.945-.009.049-.021.093-.04.14-.351.877-1.237,2.547-2.53,3.699-.387.345-.986.371-1.353.006-.937-.934-1.603-2.999-2.07-4.789-.804-3.665-1.608-17.589-1.764-24.523Z"/>
    <path d="M49.433,77.789c-.267-6.382-.907-9.398-2.102-15.85-.122-.656-.641-1.44-.985-2.012-2.806-4.666-4.706-4.557-6.416-6.895-.201-.275-.187-.653.01-.93l14.387-20.232c.416-.356,2.442-1.697,3.066,1.516.626,2.854-2.915,6.498-3.312,8.914-.047.285.292.477.529.312l12.057-8.436c.344-.241.379-.737.073-1.024l-11.216-10.504c-.352-.33-.892-.376-1.282-.093-12.49,9.069-21.527,33.322-21.181,38.638.017.262.316.413.52.249.78-.627,2.217-2.757,3.58-3.515.357-.198.803-.069,1.054.253,3.31,4.257,8.233,17.817,10.613,19.911.241.212.619.018.605-.303Z"/>
  </g>
</svg>