<?xml version="1.0" encoding="UTF-8"?>
<svg id="a" data-name="letters" xmlns="http://www.w3.org/2000/svg" width="100" height="100" viewBox="0 0 100 100">
  <g id="b" data-name="U_x2B_0065">
    <path d="M54.025,31.08c.938-.226,2.548,3.41,2.803,3.985.422.954,1.871,4.425,2.672,12.394.179,1.779.309,3.626,1.007,3.766.689.139,1.368-1.499,3.898-3.241,1.133-.78,1.435-.754,1.577-.657.236.161.307.713-.613,3.285-1.498,4.188-3.098,6.675-3.547,7.358-1.311,1.993-1.958,2.519-2.277,2.759-.276.207-2.668,1.802-4.292,1.27-.723-1.401-1.033-2.977-1.314-6.438-.028-4.264-.259-8.525-.263-12.788-.008-8.14-.521-11.484.35-11.693Z"/>
    <path d="M51.003,65.46c.723,1.401.876,4.533,1.664,10.073.76,5.344.943,7.694.985,8.978.019.578-.404.962-.804.545-2.654-2.769-9.233-12.361-16.386-24.282-.914-1.524-2.964-4.492-2.54-8.19.335-2.92,2.034-5.047,3.46-6.832,1.387-1.737,3.131-3.482,6.876-5.431,1.229-.64,2.68-1.276,4.073-1.007.279.054.969.023,1.664.92.163.211.734.946.613,1.839-.085.631-.504,1.007-1.292,1.533-1.55,1.033-2.198,1.636-3.985,2.912-1.189.849-1.65,1.508-2.124,1.993-.54.553-1.061,1.086-1.401,1.796-.667,1.392-.476,2.52-.09,5.388.313,2.32.68,4.634,1.122,6.932.145.754.17,1.064.676,1.607.436.468.585.904,1.905,1.095,3.022.438,4.407-.31,5.584.131Z"/>
  </g>
</svg>