<?xml version="1.0" encoding="UTF-8"?>
<svg id="a" data-name="letters" xmlns="http://www.w3.org/2000/svg" width="100" height="100" viewBox="0 0 100 100">
  <g id="b" data-name="U_x2B_0063">
    <path d="M48.702,62.235c1.137.043,1.256-2.018,1.314-2.901.519-2.591-6.151-8.966-8.277-11.989-2.327-1.865-4.962-1.859-5.606-1.839-6.242-.178-1.12,3.637,2.411,8.088,7.349,8.339,9.003,8.598,10.159,8.642Z"/>
    <path d="M42.789,84.41c4.229-2.343,9.287-14.44,13.686-17.456.265-.174,1.588-.416,5.65.744,1.816.519,1.839.153,1.971-.109.583-1.166.854-4.818,1.796-17.321.483-6.411.248-7.273.35-8.234.651-4.56,1.75-8.186-3.416-7.795-6.373,1.357-14.809,5.565-19.84,10.335-.071.658.487,1.252,4.074,3.767,9.459,7.454,2.209-2.857,6.482-6.394,4.964-.021,11.195,10.282,6.077,15.887-1.062.876-2.595,1.314-4.511,3.044-4.6,3.973-11.798,19.394-12.317,23.532Z"/>
  </g>
</svg>