<?xml version="1.0" encoding="UTF-8"?>
<svg id="a" data-name="letters" xmlns="http://www.w3.org/2000/svg" width="100" height="100" viewBox="0 0 100 100">
  <g id="b" data-name="U_x2B_0074">
    <path d="M31.465,42.423c.005-.324.225-.614.544-.675.745-.142,2.073.22,4.201.153,3.324-.104,2.957-.995,4.879-.964.356.006.644.32.602.674-.262,2.231-3.399,4.619-6.397,5.84-.411.168-.886.158-1.276-.053-1.78-.962-2.577-3.601-2.554-4.975Z"/>
    <path d="M67.839,26.761c1.737,5.132-.114,17.295-1.859,20.126-1.834.651-2.65-10.86-5.013-12.572-1.892-2.257-4.571.018-6.033,1.723-.625.708-.726,1.741-.23,2.544,3.684,5.958,4.267,7.717,5.155,12.396-.458,12.203-3.1,38.546-5.518,27.504-.375-13.886-.226-31.101-9.768-40.478-2.406-2.278-7.554.475-9.334.55-2.043-.661-.481-6.391,1.735-6.525,9.635-.621,19.885-2.256,28.826-6.157.816-.356,1.754.046,2.039.889Z"/>
  </g>
</svg>