<?xml version="1.0" encoding="UTF-8"?>
<svg id="c" data-name="punctuation" xmlns="http://www.w3.org/2000/svg" width="100" height="100" viewBox="0 0 100 100">
  <g id="d" data-name="U_x2B_0023">
    <path d="M55.336,53.927c-.525,1.509-2.592,2.331-4.971,2.479-2.678-.191-4.74-1.879-4.605-3.77-.208-1.958,1.632-3.053,5.093-3.078,2.433.174,3.95,1.39,4.476,3.205.11.381.137.789.006,1.164Z"/>
    <path d="M68.508,61.28c-.309-.068-.415-.437-.202-.672,1.048-1.161,1.506-3.01.362-2.624-2.769.933-5.759.985-10.455,1.279l-.34.006c-3.664-.102-7.458.154-10.896.384-.234.016-.453.122-.608.298-.356.403-.681.805-.99,1.207-7.572-.25-9.502-4.092-9.729-7.186-.288-3.922,7.617-8.543,14.847-8.672,7.322-.13,14.993,4.323,14.748,7.588-.273,3.645-7.407,4.227-11.031,4.987-1.59.334-.943.732.033.729,4.241-.013,15.496-.693,14.776-7.194-1.002-9.033-10.626-11.496-18.788-10.971-1.094.07-1.708-.086-2.806.065,4.237-2.417,8.141-4.201,12.31-5.554,1.59-.529,2.54-4.095-1.708-4.665h-24.608c-.276,0-.385.36-.154.512,3.53,2.315,10.228,3.295,14.526,3.634.535.042.769.914.245,1.03-.162-.197-20.714,7.137-31.395,24.449-1.262,8.495,1.891,18.969,4.271,20.595,1.368-1.165-.572-7.51,1.334-10.868.547-1.796,2.715-3.547,1.291-5.979-1.512-1.742.93-4.236,3.664-7.576.316-.386.927-.355,1.184.073,2.732,4.544,8.463,8.171,14.722,8.713-.501,1.072-.899,2.171-1.227,3.32-.066.23.119.461.357.436,2.03-.212,7.596-1.4,16.299-.888,7.088.417,14.354.854,14.354,4.818,0,3.862-10.675,8.962-32.058,12.088-2.458.359-4.084,1.434-.088,1.358,3.853-.074,9.931.405,12.92-.044,4.058-.609,28.741-2.891,29.956-14.54.491-4.702-6.287-8.186-15.112-10.135Z"/>
  </g>
</svg>