<?xml version="1.0" encoding="UTF-8"?>
<svg id="a" data-name="letters" xmlns="http://www.w3.org/2000/svg" width="100" height="100" viewBox="0 0 100 100">
  <g id="b" data-name="U_x2B_0075">
    <path d="M60.946,28.324c.984-.108,2.474,3.282,3.073,6.796.076.443.096.888.073,1.337-.185,3.561-1.656,10.669-2.533,13.278-.14.416-.719.441-.896.04-.941-2.134-1.15-8.972-1.25-13.567-.045-2.064.311-7.749,1.533-7.883Z"/>
    <path d="M57.048,28.036v10.324c0,.372-.42.59-.723.375-2.283-1.615-4.478-4.656-7.948-4.762-3.559-.108-6.095,6.618-5.877,11.471.07,1.563.369,2.889.649,3.799.219.712.685,1.323,1.303,1.739,1.682,1.133,2.552,2.109,3.056,3.067.333.633.474,1.346.428,2.06-.52,8.034-3.311,20.232-5.661,23.334-.191.252-.564.269-.763.024-1.198-1.468-1.126-7.437-1.105-9.188.055-4.599.936-6.699,1.503-9.286.264-1.204.256-2.457.015-3.665-1.916-9.587-4.682-15.099-5.938-22.918-.188-1.173-.071-2.385.352-3.494.621-1.63,1.13-2.633,3.085-3.329.527-.187,1.09-.271,1.65-.271h15.257c.397,0,.719.322.719.719Z"/>
  </g>
</svg>