<?xml version="1.0" encoding="UTF-8"?>
<svg id="a" data-name="letters" xmlns="http://www.w3.org/2000/svg" width="100" height="100" viewBox="0 0 100 100">
  <g id="b" data-name="U_x2B_007A">
    <path d="M57.794,63.686c6.97-2.849,16.973-28.335,14.063-33.737-.002,0-11.112.414-11.112.414-1.839.209-2.787-1.812-4.528-1.845-3.445-.15-6.244,3.35-7.007,6.613-.618,2.642-.957,11.505-1.006,32.08-.001.534.029,1.079.092,1.61.498,4.198.81,5.682,1.352,5.726,1.462.12,3.413-10.38,5.212-21.328.851-4.167-1.138-19.944,7.624-16.555,3.227,5.623-6.421,27.136-4.69,27.022Z"/>
    <path d="M42.688,81.353c1.88-6.657.807-48.146-1.242-56.426-.107-.433-.683-.502-.887-.106-.885,1.716-2.259,6.601-3.819,15.998-.125.755-.362,1.498-.73,2.169-3.231,5.884-7.442,10.073-8.323,11.668-.184.334.069.732.45.708,1.791-.111,5.37-2.991,8.651-4.558.486-.232,1.057.092,1.107.628.84,9.054-.066,13.481,1.505,23.771.215,1.411,1.371,5.134,2.413,6.354.265.31.765.187.876-.206Z"/>
  </g>
</svg>