<?xml version="1.0" encoding="UTF-8"?>
<svg id="b" data-name="numbers" xmlns="http://www.w3.org/2000/svg" width="100" height="100" viewBox="0 0 100 100">
  <g id="c" data-name="U_x2B_0035">
    <path d="M67.584,32.202c.181-.276-.079-.628-.397-.539-1.534.43-4.679,3.132-7.121,5.517-7.373,7.199-12.825,12.961-14.31,14.545-.322.343-.659.665-1.031.953-.954.739-2.312,1.591-3.179,1.67-1.388.126-2.231-1.84-2.458-2.365-.158-.366-.685-1.636-.482-3.241.267-2.11.53-3.804,3.535-5.718.538-.342.96-.843,1.225-1.422.736-1.608,1.257-2.095,2.723-3.66.296-.316-.003-.831-.419-.71-3.936,1.14-11.003,4.603-13.075,11.292-.406,1.311-.314,2.731.4,3.903,1.645,2.702,5.161,4.872,7.214,6.662,1.982,1.566,3.416,1.292,6.192-1.281,9.414-9.377,17.798-20.446,21.182-25.606Z"/>
    <path d="M36.286,80.767c1.701-.622,4.666-2.762,8.039-5.378.804-.623,1.559-1.318,2.249-2.065,5.463-5.916,8.062-9.296,8.062-9.296,1.265-1.111,2.119-2.277,2.891-2.234,1.681.095,1.713,3.714,4.73,7.007.788.861,1.506,1.791,2.148,2.227.39.265.927.029,1.047-.428.674-2.566.826-3.508.791-6.705.482-3.296-3.635-7.774-3.558-8.88-.189-1.149-.601-2.43-.856-3.385-.121-.451-.492-.808-.957-.854-.541-.053-1.147.076-1.723.199-.333.071-1.132.306-2.017.909-.574.391-1.029.942-1.325,1.571-.479,1.019-.861,1.944-1.253,2.672-.232.431-.54.805-.891,1.147-2.038,1.979-4.275,4.581-5.977,6.343-.522.541-1.002,1.106-1.455,1.706-4.359,5.769-9.782,12.434-10.566,14.812-.129.391.237.773.624.632Z"/>
  </g>
</svg>