<?xml version="1.0" encoding="UTF-8"?>
<svg id="a" data-name="letters" xmlns="http://www.w3.org/2000/svg" width="100" height="100" viewBox="0 0 100 100">
  <path id="b" data-name="U_x2B_0079" d="M42.387,29.186c6.949,12.288,8.401,16.076,23.291,11.368.725-.229,1.535-.038,2.043.528,1.079,1.203,1.577,3.525,1.593,4.678l.171,22.471c.003.377-.008.756-.047,1.131-.301,2.941-.977,3.403-2.79,3.952-.465.141-.956.202-1.441.177l-34.259-1.605c-.373-.017-.568-.453-.331-.742,2.553-3.104,8.335-6.034,13.901-6.996.587-.101,1.174.166,1.51.658.833,1.22,1.24,2.947,2.921,3.64,3.069,1.266,6.514-3.114,11.759-2.606,2.865.277,3.106,1.64,4.139.898,1.623-1.166.048-5.708-1.357-7.532-.299-.388-.849-.542-1.286-.32-1.196.608-2.226,2.568-2.568,2.378-.807-.449,4.036-10.495,4.327-14.272.041-.528-.396-.971-.926-.941-3.269.189-10.39,5.065-15.755,5.909-.566.089-1.143-.15-1.439-.64-3.396-5.625-2.661-11.909-3.906-21.979-.033-.264.319-.385.45-.154Z"/>
</svg>