<?xml version="1.0" encoding="UTF-8"?>
<svg id="b" data-name="numbers" xmlns="http://www.w3.org/2000/svg" width="100" height="100" viewBox="0 0 100 100">
  <g id="c" data-name="U_x2B_0037">
    <path d="M31.883,56.05c3.306,1.413,11.66,6.346,14.409,9.363.246.494.825,1.659.35,2.628-.377.769-1.244,1.057-1.62,1.182-.619.206-1.75.415-3.766-.35-2.481-.942-4.045-2.502-4.467-2.934-2.322-2.373-4.809-6.79-5.466-9.425-.081-.326.252-.595.561-.463Z"/>
    <path d="M53.345,81.205c2.459-.237,4.326-16.62,5.851-18.682,2.708-10.16,12.14-9.031,8.781-18.209-1.245-3.015-1.748-6.015-5.847-6.318-3.764-.634-4.406-4.81-4.016-7.966.001-.539-.514-.938-1.032-.79-5.689,1.765-11.161,6.957-12.536,14.45-.452,2.192-.145,4.16-.163,6.968-.228,2.06-.321,2.556-2.486,2.316-4.992-1.575-7.84-1.692-9.238-1.384-4.071.366,13.097,10.317,14.365,7.361,4.919-8.087-.4-10.729,1.805-16.165.322-.558.928-.892,1.573-.892,1.46.172,8.879-.403,10.09.422,5.615,3.58-.988,6.344-3.485,9.257-4.783,5.92-3.364,28.929-3.661,29.631Z"/>
  </g>
</svg>