<?xml version="1.0" encoding="UTF-8"?>
<svg id="b" data-name="numbers" xmlns="http://www.w3.org/2000/svg" width="100" height="100" viewBox="0 0 100 100">
  <path id="c" data-name="U_x2B_0032" d="M53.508,80.268c6.969-7.959,9.32-27.208,13-42.481.117-.484-.068-.985-.471-1.279l-9.721-7.102c-.431-.315-1.054-.17-1.277.315-.253.551-.309,1.268-.603,1.976-.314.756-1.073,1.227-1.891,1.244-2.458.05-8.691.176-11.058.223-.761.015-1.482.38-1.907,1.011-.639.947-.881,2.156-2.999,4.756-2.004,2.46-3.062,2.792-3.12,4.106-.137,3.091,3.552,5.744,6.284,9.735.478.698.75,1.521.746,2.367-.058,11.694-1.79,23.53-1.736,26.775.005.324.362.515.64.349.736-.441,1.557-1.86,2.246-2.832.39-.551.697-1.508.838-2.168.812-3.811,3.427-15.191,5.521-26.796.121-.672.011-1.365-.294-1.975-3.096-6.2-5.817-6.824-5.963-9.416-.003-.05.008-.104.03-.149.311-.651.656-1.16,1.658-1.634.434-.205.93-.293,1.41-.279,4.442.134,6.98.157,8.828.435.282.042.553.126.814.24,1.463.639,3.041,1.423,4.205,3.18.143.216,1.215,1.807.624,4.763-.365,1.823-2.069,3.807-2.266,4.237-1.761,3.836-1.447,21.505-3.996,30.156-.081.276.27.46.46.243Z"/>
</svg>