<?xml version="1.0" encoding="UTF-8"?>
<svg id="a" data-name="letters" xmlns="http://www.w3.org/2000/svg" width="100" height="100" viewBox="0 0 100 100">
  <g id="b" data-name="U_x2B_0070">
    <path d="M48.959,75.897c6.645-10.169,7.774-27.442,6.482-33.059-.16-.694-.908-1.083-1.585-.862-5.273,1.716-6.419,2.166-12.089,5.251-.821.447-1.282,1.358-1.161,2.285.715,5.505,2.198,10.577,3.299,12.254.107.163.356.104.39-.088.352-1.966.66-5.905,1.655-8.319.242-.586.724-1.046,1.321-1.262.853-.309,1.524-.245,1.524-.245,0,0,.213.02.518.106.645.18,1.125.742,1.188,1.409.388,4.082-1.69,18.064-2.077,22.344-.027.299.371.438.535.187Z"/>
    <path d="M42.082,70.429c.026.282-.343.42-.508.19-2.067-2.945-3.108-6.469-6.815-3.33-.34.144-.717-.105-.731-.474-.356-9.841-.646-20.292-.538-26.926,1.279-3.212,7.738-.809,10.802-3.18,1.101-.539.336-2.546,1.38-4.762,3.223-2.75,15.816-6.692,20.858-4.664-1.42,2.251-17.939,11.364-27.16,18.169-.827.611-1.304,1.593-1.232,2.619.615,8.726,3.287,15.211,3.943,22.359Z"/>
  </g>
</svg>