<?xml version="1.0" encoding="UTF-8"?>
<svg id="a" data-name="letters" xmlns="http://www.w3.org/2000/svg" width="100" height="100" viewBox="0 0 100 100">
  <g id="b" data-name="U_x2B_0062">
    <path d="M51.98,81.511c1.195.889,6.299-2.95,6.788-2.912-.236.208.646-.526,1.248-.832s.996.082,1.752-.219c2.236-1.273,9.82-12.344,9.877-16.335-3.359,1.234-11.513,10.517-14.837,13.787-2.479,3.227-5.033,5.74-4.828,6.512Z"/>
    <path d="M28.265,48.029c-.197-.624,2.661,3.104,2.956,3.679.891.969,1.773,6.686,3.186,8.885,1.069,2.009,4.065,1.915,4.434,3.881-.134,1.513-1.003,4.033-2.146,4.927-2.131-.762-5.1-4.58-5.899-6.761-1.405-4.024-.728-10.696-2.532-14.611Z"/>
    <path d="M53.031,29.515c2.633,3.498,6.084,21.013,6.033,22.254-.803,4.835-1.16,8.874-1.105,13.418-.178,6.17-4.125,9.398-8.87,12.711-1.029.772-2.074,1.856-3.613,1.61-9.598.713-.693-48.294,1.039-52.653,1.481,3.814,1.714,40.015,2.213,44.179,3.569,10.319,3.802-40.396,4.302-41.518Z"/>
  </g>
</svg>