<?xml version="1.0" encoding="UTF-8"?>
<svg id="b" data-name="numbers" xmlns="http://www.w3.org/2000/svg" width="100" height="100" viewBox="0 0 100 100">
  <path id="c" data-name="U_x2B_0030" d="M68.04,53.488c-3.931-1.136-14.926-2.434-29.772-2.23-.667.009-1.343.061-1.992.213-2.526.592-4.663,2.213-4.706,4.091-.031,1.348.504,2.476,1.965,3.191.572.28,1.225.372,1.86.325,6.433-.479,10.929-2.715,17.843-3.535,1.061-.126,2.138.045,3.087.534.793.408,1.415.836,2.51,1.031.583.104,1.195.049,1.736-.193,2.01-.899,4.736-1.502,7.467-2.366.522-.165.528-.909.002-1.061Z"/>
</svg>