<?xml version="1.0" encoding="UTF-8"?>
<svg id="a" data-name="letters" xmlns="http://www.w3.org/2000/svg" width="100" height="100" viewBox="0 0 100 100">
  <g id="b" data-name="U_x2B_0068">
    <path d="M67.854,68.892c.683-9.621-4.091-19.746-9.066-27.591-4.212-7.254-3.187-9.441-7.751-15.592.399,5.927,5.826,19.07,5.334,18.14,4.283,12.857,3.266,17.668,11.483,25.043Z"/>
    <path d="M61.11,68.98c-3.011-9.309-7.138-13.211-11.342-20.453.161.13-2.897-5.167-5.388-6.219-1.451-1.019-6.556-.595-3.766,2.497.711,1.917.852,3.137,2.146,5.124,1.922,2.395-2.454,4.135.481,6.613,7.06,5.983,6.886,5.343,12.306,9.372.552.236,3.777,2.969,5.562,3.066Z"/>
    <path d="M32.774,55.841c.333-.348,1.345.116,1.752.307,4.433,2.079,8.365,4.336,8.365,4.336,3.177,1.824,3.41,1.891,5.754,3.624,1.214.898,2.198,1.401,3.597,2.332,4.221,2.808,6.698,4.415,7.538,4.878,1.373.756,2.398,1.281,3.652,1.895.505.247,1.916.903,2.014,1.472.057.329.016.621-.46,1.248-.606.799-1.102,1.195-1.347,1.363-.451.31-.704.465-1.035.526-.786.144-1.719-.671-1.987-.854-1.32-.903-2.46-1.458-3.81-2.316-2.169-1.378-3.274-1.727-4.807-2.168-.879-.253-1.171-.34-2.173-.296-.509.023-1.343-.036-2.162-.055-.589-.013-1.078-.024-1.577-.175-.906-.275-1.449-.894-1.796-1.27-1.509-1.639-1.406-.973-3.591-3.241-.893-.927-1.792-2.048-3.591-4.292-3.421-4.267-2.493-3.156-3.049-3.925-.214-.296-.688-.858-1.155-2.119-.166-.448-.371-1.02-.131-1.27Z"/>
    <path d="M40.395,80.849c.268-.235.238-.669.219-.964-.184-2.825-.1-2.057-.296-2.934-.525-2.356-1.682-5.056-1.938-5.666-1.867-4.453-1.5-2.94-2.907-6.274-.389-.922-.723-1.856-1.823-2.995-.735-.76-1.014-1-1.226-.92-.372.141-.381,1.116-.307,1.445.255,1.124.548,1.434.701,2.54.04.291.139,1.211.263,3.066.088,1.325-.053,1.987-.055,2.496-.003,1.136.094,1.356.186,2.015.039.278.158.981.745,2.146.457.909.782,1.271,2.277,3.197,1.418,1.827,1.906,2.506,2.891,2.847.262.091.918.309,1.27,0Z"/>
  </g>
</svg>