<?xml version="1.0" encoding="UTF-8"?>
<svg id="a" data-name="letters" xmlns="http://www.w3.org/2000/svg" width="100" height="100" viewBox="0 0 100 100">
  <g id="b" data-name="U_x2B_0066">
    <path d="M49.102,49.809c-.459-.112-.351-1.817-.493-3.969-1.211-5.797-.095-12.028,2.711-14.737,1.301-1.943,6.496-5.877,7.39-1.637.145,1.25-.53,2.06-1.873,4.002-1.401,2.026-1.774,4.358-3.712,8.102-.163.872-2.833,8.148-4.024,8.239Z"/>
    <path d="M41.684,35.35c.531.109.732,1.174.832,1.752.747,4.325.462,8.327,1.007,12.219.303,2.161.462,3.293,1.226,4.686,1.596,2.909,3.266,3.588,4.927,4.987,1.199,1.01,2.283,1.445,4.057,2.693.889.626,1.767,1.28,1.703,1.648-.257,1.473-3.27,2.534-6.307,3.153-3.341.212-5.824-1.355-6.569-1.839-.676-.44-2.021-1.177-2.847-2.672-.958-1.735-1.253-3.119-1.27-7.445-.039-10.005.575-8.595.701-12.832.016-.527-.224-2.638.876-4.686.123-.229.97-1.806,1.664-1.664Z"/>
    <path d="M54.648,52.474c.351-.286,1.643.758,2.058,1.095,2.17,1.755,4.57,4.961,6.964,11.168,2.596,6.732,2.739,10.656,2.759,11.869.013.774.561,2.177-.088,2.715-.703.584-2.061-.327-5.606-1.927-.91-.411-3.793-1.692-7.007-2.715-2.42-.771-3.66-1.156-5.124-1.139-2.053.024-3.572.638-5.606,1.46-2.487,1.005-3.73,1.508-4.861,2.701-.796.839-1.698,1.572-2.54,2.365-.653.615-1.035.981-1.401.876-.561-.16-.693-1.313-.788-2.146-.094-.825-.101-1.777.088-2.978.243-1.546.661-2.554,1.401-4.336.6-1.445.795-1.63,1.007-1.752.982-.563,2.237.285,3.766.876,2.178.842,4.011.816,6.044.788,3.677-.051,6.438-1.273,8.015-1.971.091-.04,1.375-.815,3.942-2.365.67-.405,1.147-.701,1.358-1.27.345-.93-.3-1.833-.92-2.978-1.605-2.967-.626-3.106-2.672-7.839-.584-1.351-1.066-2.27-.788-2.496Z"/>
  </g>
</svg>