<?xml version="1.0" encoding="UTF-8"?>
<svg id="a" data-name="letters" xmlns="http://www.w3.org/2000/svg" width="100" height="100" viewBox="0 0 100 100">
  <path id="b" data-name="U_x2B_0076" d="M65.075,27.287c.418-.109.82.214.813.647l-.097,16.011c-.015.467-.105,1.866-.831,3.153-.329.583-.602.846-.863,1.009-.627.388-1.011,1.061-1.031,1.798-.138,5.2,1.496,16.997,4.15,28.77.318,1.412.912,4.141.197,4.467-.768.351-2.661-2.266-3.35-3.219-2.93-4.051-4.33-8.007-4.796-9.497-.101-.324-.164-.645-.193-.983-.683-7.963-1.819-17.202-.308-27.115.211-1.162.543-1.993.878-2.665.612-1.226-.027-2.704-1.338-3.102-.903-.274-1.94-.493-3.008-.677-1.307-.225-2.464.671-2.57,1.993-.256,3.197-.439,8.379-1.278,19.075-.374,4.761-1.237,11.099-1.971,11.08-.38-.01-.574-1.716-.876-3.723-2.504-12.36-3.188-14.935-3.356-19.468-.012-.33.044-.672.177-.974,1.215-2.756,3.007-3.734,2.573-6.555-.052-.336-.191-1.898-1.086-2.956-.366-.433-.92-.663-1.487-.672l-.876-.013c-.791-.012-1.47.562-1.58,1.345-.686,4.863-1.643,12.753-2.084,12.753-.501,0-1.38-8.277-3.755-15.783-.877-2.129-2.795-3.505-4.068-4.546-1.127-.922-1.073-2.68.132-3.497.071-.048.143-.093.216-.137.501-.294,1.11-.366,1.667-.203,2.193.644,3.983,1.636,4.447,2.153,1.504,1.674,1.925,2.783,2.247,3.979.259.962,1.121,1.638,2.117,1.638h2.884c1.74,0,3.22-1.268,3.483-2.988.145-.949.206-1.971.288-2.99.131-.664.523-1.551,1.213-1.423.466.086.921.734.92,1.489.167,2.25.17,5.076,1.007,5.168,2.556.282,8.055-2.471,11.393-3.343Z"/>
</svg>