<?xml version="1.0" encoding="UTF-8"?>
<svg id="a" data-name="letters" xmlns="http://www.w3.org/2000/svg" width="100" height="100" viewBox="0 0 100 100">
  <g id="b" data-name="U_x2B_0061">
    <path d="M68.92,56.639c-.597-10.825-1.162-23.948-8.959-32.09-2.862-.202,8.511,42.816-1.971,27.59-.741-1.781-3.017-14.491-3.857-14.491-2.127.392-1.869,21.079-1.212,23.712,5.212.227,11.846-.462,8.163,6.944,0,0-6.34,7.952-6.34,7.952,0,0-2.746,2.426-5.358,4.735.946-10.432-2.148-49.413-1.484-51.849-1.042-14.462-6.105,1.974-6.182,7.518.089,5.56,1.013,11.117.777,16.671-3.073,6.775,3.091,24.241,5.373,29-1.733,1.531-3.113,2.751-3.116,2.754-1.211,3.157,22.025-6.925,19.931-9.372-1.071-5.776,4.979-12.748,4.236-19.073Z"/>
    <path d="M35.512,42.216c2.016,3.476,2.195,24.42,2.449,28.247-4.275,8.608-6.753-2.36-6.933-9.762-.148-4.08,2.23-6.757,2.856-9.051.186-2.106.737-9.212,1.628-9.434Z"/>
  </g>
</svg>