<?xml version="1.0" encoding="UTF-8"?>
<svg id="a" data-name="letters" xmlns="http://www.w3.org/2000/svg" width="100" height="100" viewBox="0 0 100 100">
  <g id="b" data-name="U_x2B_0077">
    <path d="M68.575,39.972c-1.114,7.029-6.19,30.039-14.97,36.253-.651.461-1.462.667-2.25.544-3.213-.502-7.187-2.918-8.939-6.21-1.488-2.796-.788-6.142-.526-7.139,1.302-.678,3.527,2.384,6.22,3.816,1.13.601,2.477.523,3.512-.23,2.739-1.991,5.401-5.234,6.428-9.411.239-2.268-.359-2.885-.395-4.682-.005-.259.049-.519.15-.757,2.27-5.334,7.337-11.241,10.026-12.719.368-.202.809.12.744.535Z"/>
    <path d="M50.458,61.787c2.332-2.612,3.994-10.336,4.395-17.462-.575-9.658-5.548-17.31-6.307-17.036-.94.338,3.657,13.173,2.982,15.873-.076.303-.464.407-.706.209-2.725-2.226-6.528-14.474-12.853-18.52-.255-.163-.617.025-.598.327.281,4.526,8.854,29.916,12.005,36.468.197.409.779.481,1.081.143Z"/>
    <path d="M31.46,68.493c-.267-3.784.78-14.26,2.191-17.241.775-1.331,2.039.035,3.317-.856.992-.65,1.835-1.678,3.136-1.441,3.201-1.216-7.621,21.271-8.644,19.538Z"/>
  </g>
</svg>