<?xml version="1.0" encoding="UTF-8"?>
<svg id="a" data-name="letters" xmlns="http://www.w3.org/2000/svg" width="100" height="100" viewBox="0 0 100 100">
  <g id="b" data-name="U_x2B_006B">
    <path d="M60.73,21.002c.284-.039.721.904.92,1.708.264,1.07.145,1.04.364,1.609.19.493.413.699.679,1.15.414.701.626,1.766.723,2.146.262,1.032.277.273.906,4.73.386,2.732.566,5.017.701,6.92.303,4.278.463,8.41.55,13.883.12,7.566.107,9.876-.011,12.285-.115,2.36-.247,4.271-.558,6.328-.266,1.757-.444,2.971-.996,5.507-1.151,5.283-.964,4.369-1.511,6-.246.733-.357,1.359-.832,2.485-.221.524-.261.95-.495.942-.27-.01-.403-.542-.424-.777-.249-2.825-.438-5.212-.438-5.212-.033-1.106-.067-5.51-.526-15.755-.625-13.968-.57-12.668-.619-14.672-.066-2.718.088-6.085-.435-9.534-.078-.515-.23-1.789-.405-3.452-.121-1.151-.039-2.199.131-4.248.241-2.911.601-4.931.701-5.474.133-.725.25-1.277.482-2.365.592-2.781.434-1.605.701-2.934.172-.856.218-1.246.394-1.27Z"/>
    <path d="M51.533,30.199c.208.032.134,1.035.219,1.927.192,1.998.459,3.949.569,5.907.013.223.248,2.614.706,7.571.196,2.117.21,3.2.394,4.681.238,1.914.203,2.025.301,3.082.189,2.04.123,2.534.175,5.31.065,3.453.227,3.33.088,5.201-.095,1.277-.297,2.282-.701,4.292-.518,2.58-.801,3.149-1.007,3.504-.751,1.289-1.819,1.958-2.715,2.54-1.44.935-2.767,1.315-3.547,1.533-1.304.363-1.709.589-2.381.569-.76-.022-.953-.131-1.79.131-.321.101-.558.443-.734.92-.043.117-.616.583-1.122.723-.638.175-1.041-.262-1.505-.591-.398-.282-.953-.765-1.62-1.883-.487-.816-.748-1.537-1.27-2.978-.644-1.778-.346-1.389-.832-2.628-.318-.809-.53-1.191-.35-1.445.272-.384,1.174-.01,1.971.044,2.737.186,2.201.034,5.518.263,2.704.186,3.526.367,4.396-.044.543-.256.461-.597.728-1.796.424-1.904.95-3.786,1.358-5.693.614-2.873.537-3.549.476-4.828-.05-1.066-.028-1.761-.542-2.661-.598-1.048-1.019-1.2-1.686-2.452-.567-1.063-.643-1.995-.657-2.19-.091-1.311.392-2.327.569-2.715.046-.1,1.373-4.694,4.029-13.883.27-.934.702-2.449.964-2.409Z"/>
  </g>
</svg>